<svg width="24" height="20" viewBox="0 0 24 20" fill="none" xmlns="http://www.w3.org/2000/svg">
<path d="M18 9C18 9.55228 17.5523 10 17 10C16.4477 10 16 9.55228 16 9C16 8.44772 16.4477 8 17 8C17.5523 8 18 8.44772 18 9Z" fill="#2D264B"/>
<path d="M16 11C16 11.5523 15.5523 12 15 12C14.4477 12 14 11.5523 14 11C14 10.4477 14.4477 10 15 10C15.5523 10 16 10.4477 16 11Z" fill="#2D264B"/>
<path d="M20 11C20 11.5523 19.5523 12 19 12C18.4477 12 18 11.5523 18 11C18 10.4477 18.4477 10 19 10C19.5523 10 20 10.4477 20 11Z" fill="#2D264B"/>
<path d="M18 13C18 13.5523 17.5523 14 17 14C16.4477 14 16 13.5523 16 13C16 12.4477 16.4477 12 17 12C17.5523 12 18 12.4477 18 13Z" fill="#2D264B"/>
<path d="M1.99994 12L1.00999 12.1414L1.01965 12.209L1.03841 12.2747L1.99994 12ZM8.42323 5.41035L8.82937 4.49654L8.82937 4.49654L8.42323 5.41035ZM8.95421 5.64635L8.54808 6.56016L8.54808 6.56016L8.95421 5.64635ZM10.9617 6.41942L10.754 7.39762L10.9617 6.41942ZM15.0457 5.64635L14.6395 4.73253L14.6395 4.73253L15.0457 5.64635ZM13.0382 6.41942L13.2459 7.39762L13.0382 6.41942ZM15.5599 17.5377L14.7187 18.0785L14.7187 18.0785L15.5599 17.5377ZM8.29462 17.7638L9.1358 18.3046L9.1358 18.3046L8.29462 17.7638ZM3.44214 17.0477L2.48061 17.3224L2.48061 17.3224L3.44214 17.0477ZM21.3905 16.2662L20.4005 16.1247L20.4005 16.1247L21.3905 16.2662ZM22.2236 10.4344L23.2135 10.5759L23.2135 10.5759L22.2236 10.4344ZM8.66899 17.1815L7.82781 16.6407L7.82781 16.6407L8.66899 17.1815ZM15.3309 17.1815L16.1721 16.6407L16.1721 16.6407L15.3309 17.1815ZM15.5766 5.41035L15.9828 6.32417L15.9828 6.32417L15.5766 5.41035ZM1.77629 10.4344L0.786336 10.5759L1.77629 10.4344ZM4.99994 10C4.44765 10 3.99994 10.4477 3.99994 11C3.99994 11.5523 4.44765 12 4.99994 12V10ZM8.99994 12C9.55222 12 9.99994 11.5523 9.99994 11C9.99994 10.4477 9.55222 10 8.99994 10V12ZM5.99994 13C5.99994 13.5523 6.44765 14 6.99994 14C7.55222 14 7.99994 13.5523 7.99994 13H5.99994ZM7.99994 9C7.99994 8.44772 7.55222 8 6.99994 8C6.44765 8 5.99994 8.44772 5.99994 9H7.99994ZM11.9999 6L11.0212 5.79493L11.018 5.81005L11.0153 5.82527L11.9999 6ZM12.3726 4.22145L13.3513 4.42652L13.3513 4.42652L12.3726 4.22145ZM15.7577 1.66061L16.6966 2.00487L16.6966 2.00487L15.7577 1.66061ZM16.9388 1.34425C17.1289 0.825727 16.8627 0.25125 16.3442 0.0611236C15.8257 -0.129003 15.2512 0.137218 15.0611 0.655745L16.9388 1.34425ZM4.40366 16.773L2.96146 11.7253L1.03841 12.2747L2.48061 17.3224L4.40366 16.773ZM2.98989 11.8586L2.76623 10.293L0.786336 10.5759L1.00999 12.1414L2.98989 11.8586ZM7.82781 16.6407L7.45345 17.2231L9.1358 18.3046L9.51017 17.7222L7.82781 16.6407ZM16.4011 16.9969L16.1721 16.6407L14.4897 17.7222L14.7187 18.0785L16.4011 16.9969ZM8.01709 6.32417L8.54808 6.56016L9.36035 4.73253L8.82937 4.49654L8.01709 6.32417ZM15.4518 6.56016L15.9828 6.32417L15.1705 4.49654L14.6395 4.73253L15.4518 6.56016ZM6.48956 6C7.01581 6 7.5362 6.11043 8.01709 6.32417L8.82937 4.49654C8.09276 4.16916 7.29564 4 6.48956 4V6ZM8.54808 6.56016C9.50552 6.98569 10.1143 7.26183 10.754 7.39762L11.1693 5.44122C10.7828 5.35917 10.3954 5.19254 9.36035 4.73253L8.54808 6.56016ZM14.6395 4.73253C13.6045 5.19254 13.2171 5.35917 12.8306 5.44122L13.2459 7.39762C13.8855 7.26183 14.4944 6.98569 15.4518 6.56016L14.6395 4.73253ZM18.2383 18C17.4951 18 16.8029 17.6221 16.4011 16.9969L14.7187 18.0785C15.4886 19.2761 16.8146 20 18.2383 20V18ZM7.45345 17.2231C7.14216 17.7073 6.60601 18 6.03035 18V20C7.28653 20 8.45651 19.3612 9.1358 18.3046L7.45345 17.2231ZM2.48061 17.3224C2.93344 18.9073 4.38204 20 6.03035 20V18C5.275 18 4.61117 17.4993 4.40366 16.773L2.48061 17.3224ZM20.4005 16.1247C20.2468 17.2008 19.3253 18 18.2383 18V20C20.3206 20 22.086 18.4689 22.3804 16.4076L20.4005 16.1247ZM23.2135 10.5759C23.7093 7.10518 21.0162 4 17.5103 4V6C19.7991 6 21.5573 8.0272 21.2336 10.293L23.2135 10.5759ZM9.51017 17.7222C10.6753 15.9098 13.3246 15.9098 14.4897 17.7222L16.1721 16.6407C14.2197 13.6037 9.78019 13.6037 7.82781 16.6407L9.51017 17.7222ZM15.9828 6.32417C16.4637 6.11044 16.9841 6 17.5103 6V4C16.7042 4 15.9071 4.16916 15.1705 4.49654L15.9828 6.32417ZM2.76623 10.293C2.44255 8.0272 4.20073 6 6.48956 6V4C2.98363 4 0.290523 7.10517 0.786336 10.5759L2.76623 10.293ZM7.99994 13V9H5.99994V13H7.99994ZM12.9787 6.20507L13.3513 4.42652L11.3938 4.01638L11.0212 5.79493L12.9787 6.20507ZM16.6966 2.00487L16.9388 1.34425L15.0611 0.655745L14.8188 1.31636L16.6966 2.00487ZM14.1003 3.81818C15.2604 3.81818 16.2972 3.09406 16.6966 2.00487L14.8188 1.31636C14.7083 1.61779 14.4214 1.81818 14.1003 1.81818V3.81818ZM13.3513 4.42652C13.4256 4.07205 13.7382 3.81818 14.1003 3.81818V1.81818C12.7917 1.81818 11.6622 2.73553 11.3938 4.01638L13.3513 4.42652ZM21.2336 10.293L20.4005 16.1247L22.3804 16.4076L23.2135 10.5759L21.2336 10.293ZM4.99994 12H6.99994V10H4.99994V12ZM6.99994 12H8.99994V10H6.99994V12ZM10.754 7.39762C11.1279 7.477 11.5075 7.52024 11.8876 7.52736L11.925 5.52771C11.6716 5.52297 11.4186 5.49414 11.1693 5.44122L10.754 7.39762ZM11.8876 7.52736C12.3426 7.53588 12.7983 7.49264 13.2459 7.39762L12.8306 5.44122C12.5322 5.50456 12.2284 5.53339 11.925 5.52771L11.8876 7.52736ZM11.0153 5.82527L10.9217 6.35281L12.8909 6.70227L12.9846 6.17473L11.0153 5.82527Z" fill="#2D264B"/>
</svg>
