<svg xmlns="http://www.w3.org/2000/svg" viewBox="0 0 48 48" width="48" height="48" preserveAspectRatio="xMidYMid meet" style="width: 100%; height: 100%; transform: translate3d(0px, 0px, 0px);"><defs><clipPath id="__lottie_element_58"><rect width="48" height="48" x="0" y="0"></rect></clipPath></defs><g clip-path="url(#__lottie_element_58)"><g transform="matrix(1,0,0,1,0,0)" opacity="1" style="display: block;"><g opacity="1" transform="matrix(1,0,0,1,0,0)"><path stroke-linecap="round" stroke-linejoin="round" fill-opacity="0" stroke="rgb(0,0,0)" stroke-opacity="1" stroke-width="3" d="M0 0"></path></g><g opacity="1" transform="matrix(1,0,0,1,35.75,3)"><path stroke-linecap="round" stroke-linejoin="round" fill-opacity="0" stroke="rgb(0,0,0)" stroke-opacity="1" stroke-width="3" d="M0 0"></path></g><g opacity="1" transform="matrix(1,0,0,1,42.5,5.25)"><path stroke-linecap="round" stroke-linejoin="round" fill-opacity="0" stroke="rgb(0,0,0)" stroke-opacity="1" stroke-width="3" d="M0 0"></path></g><g opacity="1" transform="matrix(1,0,0,1,12.25,3.25)"><path stroke-linecap="round" stroke-linejoin="round" fill-opacity="0" stroke="rgb(0,0,0)" stroke-opacity="1" stroke-width="3" d="M0 0"></path></g><g opacity="1" transform="matrix(1,0,0,1,5.5,5.25)"><path stroke-linecap="round" stroke-linejoin="round" fill-opacity="0" stroke="rgb(0,0,0)" stroke-opacity="1" stroke-width="3" d="M0 0"></path></g><g opacity="1" transform="matrix(1,0,0,1,2.25,11)"><path stroke-linecap="round" stroke-linejoin="round" fill-opacity="0" stroke="rgb(0,0,0)" stroke-opacity="1" stroke-width="3" d="M0 0"></path></g><g opacity="1" transform="matrix(1,0,0,1,45.75,11)"><path stroke-linecap="round" stroke-linejoin="round" fill-opacity="0" stroke="rgb(0,0,0)" stroke-opacity="1" stroke-width="3" d="M0 0"></path></g><g opacity="1" transform="matrix(1,0,0,1,17.75,42.75)"><path stroke-linecap="round" stroke-linejoin="round" fill-opacity="0" stroke="rgb(0,0,0)" stroke-opacity="1" stroke-width="3" d="M0 0"></path></g><g opacity="1" transform="matrix(1,0,0,1,12.75,39.5)"><path stroke-linecap="round" stroke-linejoin="round" fill-opacity="0" stroke="rgb(0,0,0)" stroke-opacity="1" stroke-width="3" d="M0 0"></path></g><g opacity="1" transform="matrix(1,0,0,1,8.5,35.75)"><path stroke-linecap="round" stroke-linejoin="round" fill-opacity="0" stroke="rgb(0,0,0)" stroke-opacity="1" stroke-width="3" d="M0 0"></path></g><g opacity="1" transform="matrix(1,0,0,1,5.25,31)"><path stroke-linecap="round" stroke-linejoin="round" fill-opacity="0" stroke="rgb(0,0,0)" stroke-opacity="1" stroke-width="3" d="M0 0"></path></g><g opacity="1" transform="matrix(1,0,0,1,30.25,42.75)"><path stroke-linecap="round" stroke-linejoin="round" fill-opacity="0" stroke="rgb(0,0,0)" stroke-opacity="1" stroke-width="3" d="M0 0"></path></g><g opacity="1" transform="matrix(1,0,0,1,35.25,39.5)"><path stroke-linecap="round" stroke-linejoin="round" fill-opacity="0" stroke="rgb(0,0,0)" stroke-opacity="1" stroke-width="3" d="M0 0"></path></g><g opacity="1" transform="matrix(1,0,0,1,39.5,35.75)"><path stroke-linecap="round" stroke-linejoin="round" fill-opacity="0" stroke="rgb(0,0,0)" stroke-opacity="1" stroke-width="3" d="M0 0"></path></g><g opacity="1" transform="matrix(1,0,0,1,42.75,31)"><path stroke-linecap="round" stroke-linejoin="round" fill-opacity="0" stroke="rgb(0,0,0)" stroke-opacity="1" stroke-width="3" d="M0 0"></path></g><g opacity="1" transform="matrix(1,0,0,1,0,0)"><path stroke-linecap="round" stroke-linejoin="round" fill-opacity="0" stroke="rgb(0,0,0)" stroke-opacity="1" stroke-width="3" d="M0 0"></path></g><g opacity="1" transform="matrix(1,0,0,1,0,0)"><path stroke-linecap="round" stroke-linejoin="round" fill-opacity="0" stroke="rgb(0,0,0)" stroke-opacity="1" stroke-width="3" d="M0 0"></path></g></g><g transform="matrix(1,0,0,1,0,0)" opacity="1" style="display: block;"><g opacity="1" transform="matrix(1,0,0,1,24,24.5)"><path stroke-linecap="butt" stroke-linejoin="round" fill-opacity="0" stroke="rgb(0,0,0)" stroke-opacity="1" stroke-width="3" d=" M9,-16 C5.5,-16 2.5290000438690186,-14 0,-10 C-2.5290000438690186,-14 -5.5,-16 -9,-16 C-14.246999740600586,-16 -18.5,-11.746999740600586 -18.5,-6.5 C-18.5,0 -7.5,8.5 0,16 C7.5,8.5 18.5,0 18.5,-6.5 C18.5,-11.746999740600586 14.246999740600586,-16 9,-16z"></path></g></g><g transform="matrix(0,0,0,0,24,24)" opacity="1" style="display: block;"><g opacity="1" transform="matrix(1,0,0,1,24,24.5)"><path fill="rgb(0,0,0)" fill-opacity="1" d=" M9,-16 C5.5,-16 2.5290000438690186,-14 0,-10 C-2.5290000438690186,-14 -5.5,-16 -9,-16 C-14.246999740600586,-16 -18.5,-11.746999740600586 -18.5,-6.5 C-18.5,0 -7.5,8.5 0,16 C7.5,8.5 18.5,0 18.5,-6.5 C18.5,-11.746999740600586 14.246999740600586,-16 9,-16z"></path></g></g></g></svg>