<svg width="20" height="22" viewBox="0 0 20 22" fill="none" xmlns="http://www.w3.org/2000/svg">
<path d="M4.45492 20.7553L4.76393 19.8042L4.45492 20.7553ZM1.24472 17.5451L2.19577 17.2361L1.24472 17.5451ZM18.7553 17.5451L17.8042 17.2361L18.7553 17.5451ZM15.5451 20.7553L15.2361 19.8042L15.5451 20.7553ZM15.5451 7.24472L15.2361 8.19577L15.5451 7.24472ZM18.7553 10.4549L17.8042 10.7639L18.7553 10.4549ZM4.45492 7.24472L4.76393 8.19577L4.45492 7.24472ZM1.24472 10.4549L2.19577 10.7639L1.24472 10.4549ZM12.3998 2.79949C12.8414 3.13124 13.4682 3.04222 13.8 2.60067C14.1317 2.15913 14.0427 1.53225 13.6012 1.20051L12.3998 2.79949ZM11 12C11 11.4477 10.5523 11 10 11C9.44772 11 9 11.4477 9 12H11ZM9 16C9 16.5523 9.44772 17 10 17C10.5523 17 11 16.5523 11 16H9ZM8 8H12V6H8V8ZM12 20H8V22H12V20ZM8 20C6.06088 20 5.32849 19.9877 4.76393 19.8042L4.1459 21.7063C5.08766 22.0123 6.21655 22 8 22V20ZM0 14C0 15.7834 -0.0123374 16.9123 0.293661 17.8541L2.19577 17.2361C2.01234 16.6715 2 15.9391 2 14H0ZM4.76393 19.8042C3.54618 19.4086 2.59145 18.4538 2.19577 17.2361L0.293661 17.8541C0.887168 19.6807 2.31927 21.1128 4.1459 21.7063L4.76393 19.8042ZM18 14C18 15.9391 17.9877 16.6715 17.8042 17.2361L19.7063 17.8541C20.0123 16.9123 20 15.7834 20 14H18ZM12 22C13.7834 22 14.9123 22.0123 15.8541 21.7063L15.2361 19.8042C14.6715 19.9877 13.9391 20 12 20V22ZM17.8042 17.2361C17.4086 18.4538 16.4538 19.4086 15.2361 19.8042L15.8541 21.7063C17.6807 21.1128 19.1128 19.6807 19.7063 17.8541L17.8042 17.2361ZM12 8C13.9391 8 14.6715 8.01234 15.2361 8.19577L15.8541 6.29366C14.9123 5.98766 13.7834 6 12 6V8ZM20 14C20 12.2166 20.0123 11.0877 19.7063 10.1459L17.8042 10.7639C17.9877 11.3285 18 12.0609 18 14H20ZM15.2361 8.19577C16.4538 8.59145 17.4086 9.54618 17.8042 10.7639L19.7063 10.1459C19.1128 8.31927 17.6807 6.88717 15.8541 6.29366L15.2361 8.19577ZM2 14C2 12.0609 2.01234 11.3285 2.19577 10.7639L0.293661 10.1459C-0.0123374 11.0877 0 12.2166 0 14H2ZM4.1459 6.29366C2.31927 6.88717 0.887168 8.31927 0.293661 10.1459L2.19577 10.7639C2.59145 9.54618 3.54618 8.59145 4.76393 8.19577L4.1459 6.29366ZM6 7V6H4V7H6ZM10 0C6.68629 0 4 2.68629 4 6H6C6 3.79086 7.79086 2 10 2V0ZM10 2C10.9018 2 11.7313 2.29723 12.3998 2.79949L13.6012 1.20051C12.5982 0.446944 11.3498 0 10 0V2ZM9 12V16H11V12H9ZM8 6C6.59859 6 5.61206 5.99651 4.83387 6.12761L5.16613 8.09982C5.73793 8.00349 6.51808 8 8 8V6ZM4.83387 6.12761C4.59578 6.16772 4.36853 6.22132 4.1459 6.29366L4.76393 8.19577C4.8809 8.15777 5.01129 8.12591 5.16613 8.09982L4.83387 6.12761ZM4 7V7.11372H6V7H4Z" fill="#2D264B"/>
</svg>
