<svg width="16" height="20" viewBox="0 0 16 20" fill="none" xmlns="http://www.w3.org/2000/svg">
<path d="M0 19C-2.41411e-08 19.5523 0.447715 20 1 20C1.55228 20 2 19.5523 2 19L0 19ZM14.2189 4.28703L13.6523 3.46299L13.6523 3.46299L14.2189 4.28703ZM13.9376 4.48039L14.5042 5.30443L14.5042 5.30443L13.9376 4.48039ZM13.9376 8.51961L14.5042 7.69557L14.5042 7.69557L13.9376 8.51961ZM14.2189 8.71297L13.6523 9.53701L13.6523 9.53701L14.2189 8.71297ZM2 19L2 3L6.99382e-07 3L0 19L2 19ZM3 2H13.1979V0H3V2ZM13.1979 11H1V13H13.1979V11ZM13.6523 3.46299L13.3711 3.65634L14.5042 5.30443L14.7854 5.11108L13.6523 3.46299ZM13.3711 9.34366L13.6523 9.53701L14.7854 7.88892L14.5042 7.69557L13.3711 9.34366ZM13.6523 9.53701C13.87 9.68664 14 9.93382 14 10.1979H16C16 9.27523 15.5457 8.41166 14.7854 7.88892L13.6523 9.53701ZM14 2.80206C14 3.06618 13.87 3.31336 13.6523 3.46299L14.7854 5.11108C15.5457 4.58834 16 3.72477 16 2.80206H14ZM13.3711 3.65634C11.3766 5.02754 11.3766 7.97246 13.3711 9.34366L14.5042 7.69557C13.6656 7.11907 13.6656 5.88093 14.5042 5.30443L13.3711 3.65634ZM13.1979 13C14.7455 13 16 11.7455 16 10.1979H14C14 10.6409 13.6409 11 13.1979 11V13ZM13.1979 2C13.6409 2 14 2.3591 14 2.80206H16C16 1.25453 14.7455 0 13.1979 0V2ZM2 3C2 2.50033 2.00212 2.22617 2.0277 2.03598C2.0494 1.87455 2.07032 1.92968 2 2L0.585787 0.585786C0.222572 0.949002 0.0970499 1.38628 0.0455296 1.76948C-0.002123 2.12392 7.18752e-07 2.55687 6.99382e-07 3L2 3ZM3 0C2.55687 0 2.12392 -0.00212374 1.76948 0.0455289C1.38628 0.0970491 0.949003 0.222571 0.585787 0.585786L2 2C1.92968 2.07032 1.87455 2.0494 2.03598 2.02769C2.22617 2.00212 2.50033 2 3 2V0Z" fill="#2D264B"/>
</svg>
