<svg width="23" height="24" viewBox="0 0 23 24" fill="none" xmlns="http://www.w3.org/2000/svg">
<path d="M3.06107 21.2298L3.64886 20.4208L3.64886 20.4208L3.06107 21.2298ZM1.95491 20.1237L1.1459 20.7114L1.1459 20.7114L1.95491 20.1237ZM18.0451 20.1237L17.2361 19.5359L17.2361 19.5359L18.0451 20.1237ZM16.9389 21.2298L16.3511 20.4208L16.3511 20.4208L16.9389 21.2298ZM3.06107 5.13964L2.47329 4.33062L2.47329 4.33062L3.06107 5.13964ZM1.95491 6.2458L1.1459 5.65802L1.1459 5.65802L1.95491 6.2458ZM11.988 5.19186C12.5403 5.19848 12.9933 4.75616 12.9999 4.20392C13.0065 3.65167 12.5642 3.19862 12.012 3.192L11.988 5.19186ZM19.9927 11.1727C19.9861 10.6205 19.5331 10.1782 18.9808 10.1848C18.4286 10.1914 17.9862 10.6445 17.9929 11.1967L19.9927 11.1727ZM8.82865 12.3269C8.43813 12.7174 8.43813 13.3506 8.82865 13.7411C9.21917 14.1316 9.85234 14.1316 10.2429 13.7411L8.82865 12.3269ZM14.481 0.013168C13.9288 0.015632 13.483 0.46534 13.4855 1.01762C13.488 1.5699 13.9377 2.01561 14.49 2.01315L14.481 0.013168ZM16.9676 1.00208L16.9721 2.00207L16.9676 1.00208ZM21.5676 5.60208L20.5677 5.59762L20.5677 5.59762L21.5676 5.60208ZM20.5566 8.07976C20.5541 8.63204 20.9998 9.08175 21.5521 9.08422C22.1044 9.08668 22.5541 8.64097 22.5566 8.08869L20.5566 8.07976ZM20.6138 1.51277L21.2259 0.721932L21.2259 0.721931L20.6138 1.51277ZM21.057 1.95589L21.8478 1.34386L21.8478 1.34386L21.057 1.95589ZM20.8273 1.74245L20.2139 0.952638L20.1645 0.991052L20.1202 1.03534L20.8273 1.74245ZM10 21.1847C8.10286 21.1847 6.76033 21.1834 5.72497 21.0712C4.70833 20.961 4.10714 20.7538 3.64886 20.4208L2.47329 22.0388C3.32933 22.6608 4.32274 22.931 5.50955 23.0595C6.67764 23.1861 8.14741 23.1847 10 23.1847V21.1847ZM0 13.1847C0 15.0373 -0.00137261 16.5071 0.125182 17.6752C0.253765 18.862 0.523946 19.8554 1.1459 20.7114L2.76393 19.5359C2.43097 19.0776 2.22369 18.4764 2.11355 17.4598C2.00137 16.4244 2 15.0819 2 13.1847H0ZM3.64886 20.4208C3.30928 20.1741 3.01065 19.8754 2.76393 19.5359L1.1459 20.7114C1.51597 21.2208 1.96392 21.6688 2.47329 22.0388L3.64886 20.4208ZM18 13.1847C18 15.0819 17.9986 16.4244 17.8865 17.4598C17.7763 18.4764 17.569 19.0776 17.2361 19.5359L18.8541 20.7114C19.4761 19.8554 19.7462 18.862 19.8748 17.6752C20.0014 16.5071 20 15.0373 20 13.1847H18ZM10 23.1847C11.8526 23.1847 13.3224 23.1861 14.4905 23.0595C15.6773 22.931 16.6707 22.6608 17.5267 22.0388L16.3511 20.4208C15.8929 20.7538 15.2917 20.961 14.275 21.0712C13.2397 21.1834 11.8971 21.1847 10 21.1847V23.1847ZM17.2361 19.5359C16.9894 19.8754 16.6907 20.1741 16.3511 20.4208L17.5267 22.0388C18.0361 21.6688 18.484 21.2208 18.8541 20.7114L17.2361 19.5359ZM10 3.18473C8.14741 3.18473 6.67764 3.18335 5.50955 3.30991C4.32274 3.43849 3.32933 3.70867 2.47329 4.33062L3.64886 5.94866C4.10714 5.6157 4.70833 5.40842 5.72497 5.29827C6.76033 5.1861 8.10286 5.18473 10 5.18473V3.18473ZM2 13.1847C2 11.2876 2.00137 9.94506 2.11355 8.9097C2.22369 7.89306 2.43097 7.29187 2.76393 6.83359L1.1459 5.65802C0.523946 6.51406 0.253765 7.50747 0.125182 8.69427C-0.00137261 9.86237 0 11.3321 0 13.1847H2ZM2.47329 4.33062C1.96392 4.7007 1.51598 5.14865 1.1459 5.65802L2.76393 6.83359C3.01065 6.49401 3.30928 6.19538 3.64886 5.94866L2.47329 4.33062ZM10 5.18473C10.7371 5.18473 11.394 5.18474 11.988 5.19186L12.012 3.192C11.4037 3.18471 10.7339 3.18473 10 3.18473V5.18473ZM20 13.1847C20 12.4508 20 11.7811 19.9927 11.1727L17.9929 11.1967C18 11.7907 18 12.4476 18 13.1847H20ZM14.49 2.01315L16.9721 2.00207L16.9632 0.00209376L14.481 0.013168L14.49 2.01315ZM20.5677 5.59762L20.5566 8.07976L22.5566 8.08869L22.5676 5.60655L20.5677 5.59762ZM16.9721 2.00207C17.9853 1.99755 18.6608 1.99605 19.1706 2.05173C19.6603 2.10521 19.869 2.20083 20.0018 2.30361L21.2259 0.721931C20.6817 0.300771 20.057 0.136639 19.3877 0.06355C18.7386 -0.00734185 17.9294 -0.00221709 16.9632 0.00209376L16.9721 2.00207ZM22.5676 5.60655C22.5719 4.64033 22.5771 3.83117 22.5062 3.18201C22.4331 2.51273 22.269 1.88807 21.8478 1.34386L20.2661 2.56791C20.3689 2.70071 20.4645 2.90942 20.518 3.39913C20.5737 3.90895 20.5722 4.58438 20.5677 5.59762L22.5676 5.60655ZM10.2429 13.7411L21.5344 2.44955L20.1202 1.03534L8.82865 12.3269L10.2429 13.7411ZM20.0018 2.30361C20.0519 2.34238 20.0994 2.38428 20.144 2.42904L21.5605 1.01708C21.4555 0.911739 21.3437 0.813143 21.2259 0.721932L20.0018 2.30361ZM20.144 2.42904C20.1875 2.47268 20.2283 2.51906 20.2661 2.56792L21.8478 1.34386C21.7589 1.22893 21.6629 1.1198 21.5605 1.01708L20.144 2.42904ZM21.4406 2.53225L21.4656 2.51286L20.2389 0.933249L20.2139 0.952638L21.4406 2.53225Z" fill="#2D264B"/>
</svg>
