<svg width="24" height="18" viewBox="0 0 24 18" fill="none" xmlns="http://www.w3.org/2000/svg">
<path fill-rule="evenodd" clip-rule="evenodd" d="M9.03356 0.25H8.96644C7.59473 0.249996 6.51928 0.249992 5.65494 0.320612C4.7748 0.392522 4.04769 0.541379 3.38955 0.876713C2.30762 1.42798 1.42798 2.30762 0.876713 3.38955C0.541379 4.04769 0.392522 4.7748 0.320612 5.65494C0.249992 6.51928 0.249996 7.59472 0.25 8.96643V9.03356C0.249996 10.4053 0.249992 11.4807 0.320612 12.3451C0.392522 13.2252 0.541379 13.9523 0.876713 14.6104C1.42798 15.6924 2.30762 16.572 3.38955 17.1233C4.04769 17.4586 4.77479 17.6075 5.65494 17.6794C6.51921 17.75 7.59454 17.75 8.96608 17.75H9.03358C10.4051 17.75 11.4808 17.75 12.3451 17.6794C13.2252 17.6075 13.9523 17.4586 14.6104 17.1233C15.6924 16.572 16.572 15.6924 17.1233 14.6104C17.1733 14.5123 17.2192 14.4125 17.2613 14.3109C18.428 14.8206 19.3834 15.2344 20.159 15.4448C20.9839 15.6686 21.7874 15.7147 22.5057 15.2446C23.2241 14.7746 23.5036 14.0198 23.6288 13.1743C23.7501 12.3556 23.75 11.2757 23.75 9.95018V8.04982C23.75 6.72426 23.7501 5.64436 23.6288 4.82567C23.5036 3.98019 23.2241 3.2254 22.5057 2.75537C21.7874 2.28534 20.9839 2.33144 20.159 2.55522C19.3834 2.76561 18.428 3.17938 17.2613 3.68909C17.2192 3.58748 17.1733 3.48774 17.1233 3.38955C16.572 2.30762 15.6924 1.42798 14.6104 0.876713C13.9523 0.541379 13.2252 0.392522 12.3451 0.320612C11.4807 0.249992 10.4053 0.249996 9.03356 0.25ZM5 5.25C4.58579 5.25 4.25 5.58579 4.25 6C4.25 6.41421 4.58579 6.75 5 6.75H9C9.41421 6.75 9.75 6.41421 9.75 6C9.75 5.58579 9.41421 5.25 9 5.25H5Z" fill="#2D264B"/>
</svg>
