<svg width="304" height="369" viewBox="0 0 304 369" fill="none" xmlns="http://www.w3.org/2000/svg">
<rect x="4" width="300" height="300" fill="#E5E5E5"/>
<g filter="url(#filter0_bd_147_59)">
<path d="M221.358 216.441C220.595 216.881 219.656 217.221 218.611 217.413L184.928 223.599C175.367 225.352 166.779 226.084 158.666 225.843C140.918 225.32 124.259 221.113 111.765 213.986L70.6261 190.538C62.0866 185.869 63.7325 174.399 66.693 170.848L94.2099 148.348C95.7664 146.452 98.454 144.886 101.751 143.945L156.387 128.244C162.495 126.482 169.796 127.121 174.533 129.827L215.702 153.293C228.184 160.406 236.592 161.218 237.73 171.448C239.332 181.462 236.171 189.845 233.257 195.364L222.999 214.844C222.685 215.451 222.115 215.996 221.358 216.441Z" fill="#05D536" shape-rendering="crispEdges"/>
<path d="M174.872 129.629L174.872 129.629C169.984 126.837 162.459 126.182 156.172 127.995L174.872 129.629ZM174.872 129.629L216.04 153.095C219.145 154.864 221.997 156.242 224.559 157.478L224.607 157.502C227.143 158.726 229.409 159.819 231.323 161.013C235.211 163.435 237.634 166.258 238.21 171.427C239.819 181.486 236.643 189.906 233.718 195.445L223.461 214.924C223.461 214.924 223.461 214.925 223.461 214.925L223.46 214.925L222.999 214.844L174.872 129.629ZM221.699 216.637L221.701 216.636L101.537 143.696C98.157 144.661 95.3987 146.263 93.7924 148.207L66.2993 170.688C66.2839 170.7 66.2703 170.714 66.2587 170.727C64.7309 172.56 63.5779 176.366 63.8655 180.285C64.1528 184.199 65.8835 188.326 70.291 190.738C70.2923 190.739 70.2935 190.739 70.2947 190.74L111.426 214.184C111.426 214.184 111.426 214.184 111.426 214.184C124.006 221.36 140.777 225.595 158.642 226.121C166.823 226.363 175.47 225.625 185.074 223.864L185.074 223.864L218.757 217.678C219.879 217.472 220.884 217.108 221.699 216.637ZM156.171 127.995L101.538 143.696L156.171 127.995Z" stroke="url(#paint0_linear_147_59)" stroke-width="0.786962" stroke-linecap="round" stroke-linejoin="round" shape-rendering="crispEdges"/>
</g>
<g filter="url(#filter1_b_147_59)">
<mask id="path-4-outside-1_147_59" maskUnits="userSpaceOnUse" x="40.0224" y="102.277" width="238.162" height="137.491" fill="black">
<rect fill="white" x="40.0224" y="102.277" width="238.162" height="137.491"/>
<path d="M221.358 206.343C220.594 206.784 219.656 207.123 218.611 207.315L184.928 213.501C175.367 215.255 166.778 215.986 158.666 215.745C140.917 215.223 124.259 211.016 111.765 203.889L70.6259 180.44C65.877 177.735 64.6896 173.531 67.6501 169.981L94.2097 138.25C95.7662 136.354 98.4538 134.789 101.751 133.848L156.386 118.146C162.495 116.384 169.796 117.024 174.533 119.73L215.702 143.195C228.184 150.308 235.681 159.86 236.819 170.09C237.34 174.784 236.171 179.748 233.256 185.267L222.999 204.747C222.685 205.354 222.115 205.899 221.358 206.343"/>
</mask>
<path d="M221.358 206.343C220.594 206.784 219.656 207.123 218.611 207.315L184.928 213.501C175.367 215.255 166.778 215.986 158.666 215.745C140.917 215.223 124.259 211.016 111.765 203.889L70.6259 180.44C65.877 177.735 64.6896 173.531 67.6501 169.981L94.2097 138.25C95.7662 136.354 98.4538 134.789 101.751 133.848L156.386 118.146C162.495 116.384 169.796 117.024 174.533 119.73L215.702 143.195C228.184 150.308 235.681 159.86 236.819 170.09C237.34 174.784 236.171 179.748 233.256 185.267L222.999 204.747C222.685 205.354 222.115 205.899 221.358 206.343" fill="url(#paint1_linear_147_59)"/>
<path d="M223.178 207.394C224.183 206.814 224.183 205.873 223.178 205.292C222.173 204.712 220.543 204.712 219.538 205.292L223.178 207.394ZM218.611 207.315L217.83 205.899L217.83 205.899L218.611 207.315ZM184.928 213.501L185.707 214.918L185.708 214.918L184.928 213.501ZM158.666 215.745L158.798 214.261L158.797 214.261L158.666 215.745ZM111.765 203.889L113.574 202.832L113.573 202.831L111.765 203.889ZM70.6259 180.44L72.4345 179.383L72.4342 179.383L70.6259 180.44ZM67.6501 169.981L65.3322 169.334L65.3306 169.336L67.6501 169.981ZM94.2097 138.25L96.5275 138.897C96.5303 138.893 96.5331 138.89 96.5359 138.887L94.2097 138.25ZM101.751 133.848L102.892 135.18L102.898 135.178L101.751 133.848ZM156.386 118.146L157.534 119.477L157.537 119.476L156.386 118.146ZM174.533 119.73L172.722 120.786L172.724 120.787L174.533 119.73ZM215.702 143.195L213.893 144.253L213.893 144.253L215.702 143.195ZM236.819 170.09L239.388 169.995L239.388 169.995L236.819 170.09ZM233.256 185.267L230.794 184.833L230.793 184.834L233.256 185.267ZM222.999 204.747L220.536 204.315L220.533 204.321L222.999 204.747ZM219.523 205.301C218.526 205.886 218.539 206.827 219.552 207.402C220.565 207.978 222.195 207.971 223.192 207.386L219.523 205.301ZM219.538 205.292C219.051 205.573 218.464 205.783 217.83 205.899L219.391 208.732C220.848 208.464 222.138 207.994 223.178 207.394L219.538 205.292ZM217.83 205.899L184.148 212.085L185.708 214.918L219.391 208.732L217.83 205.899ZM184.149 212.085C174.816 213.796 166.54 214.491 158.798 214.261L158.534 217.23C167.017 217.481 175.917 216.713 185.707 214.918L184.149 212.085ZM158.797 214.261C141.67 213.757 125.612 209.698 113.574 202.832L109.955 204.946C122.906 212.333 140.164 216.689 158.535 217.23L158.797 214.261ZM113.573 202.831L72.4345 179.383L68.8172 181.498L109.956 204.946L113.573 202.831ZM72.4342 179.383C68.4957 177.139 67.4693 173.624 69.9696 170.625L65.3306 169.336C61.9099 173.438 63.2583 178.331 68.8176 181.498L72.4342 179.383ZM69.9679 170.627L96.5275 138.897L91.8918 137.604L65.3322 169.334L69.9679 170.627ZM96.5359 138.887C97.8396 137.299 100.104 135.976 102.892 135.18L100.61 132.515C96.8032 133.602 93.6928 135.41 91.8834 137.614L96.5359 138.887ZM102.898 135.178L157.534 119.477L155.239 116.816L100.604 132.517L102.898 135.178ZM157.537 119.476C162.69 117.989 168.794 118.542 172.722 120.786L176.343 118.673C170.798 115.506 162.3 114.78 155.236 116.817L157.537 119.476ZM172.724 120.787L213.893 144.253L217.51 142.138L176.341 118.672L172.724 120.787ZM213.893 144.253C225.92 151.106 233.152 160.314 234.25 170.186L239.388 169.995C238.21 159.406 230.448 149.511 217.51 142.138L213.893 144.253ZM234.25 170.185C234.747 174.664 233.639 179.447 230.794 184.833L235.719 185.7C238.704 180.049 239.933 174.903 239.388 169.995L234.25 170.185ZM230.793 184.834L220.536 204.315L225.462 205.179L235.719 185.699L230.793 184.834ZM220.533 204.321C220.342 204.689 219.995 205.024 219.523 205.301L223.192 207.386C224.235 206.774 225.028 206.019 225.466 205.173L220.533 204.321Z" fill="url(#paint2_linear_147_59)" mask="url(#path-4-outside-1_147_59)"/>
</g>
<g filter="url(#filter2_d_147_59)">
<path d="M72.5126 135.01L74.9746 133.589C117.104 109.268 187.237 113.261 220.325 141.864V141.864L212.506 156.364C211.214 158.761 208.647 160.862 205.169 162.369V162.369L166.337 168.222C160.024 169.174 153.372 169.067 147.16 167.914L109.599 160.943L72.5126 135.01Z" fill="#27F171"/>
</g>
<g filter="url(#filter3_b_147_59)">
<path d="M163.656 76.3555L163.656 76.3553C158.768 73.5633 151.243 72.9077 144.956 74.7208L163.656 76.3555ZM163.656 76.3555L204.825 99.8211C207.93 101.59 210.782 102.968 213.343 104.205L213.391 104.228C215.927 105.452 218.193 106.545 220.108 107.739C223.996 110.162 226.419 112.984 226.995 118.153C228.603 128.213 225.428 136.632 222.502 142.171L212.246 161.65C212.245 161.651 212.245 161.651 212.245 161.651L212.245 161.651L211.784 161.571L163.656 76.3555ZM210.483 163.364L210.486 163.362L90.321 90.4222C86.9414 91.387 84.1831 92.9892 82.5768 94.9328L55.0836 117.414C55.0682 117.426 55.0547 117.44 55.0431 117.454C53.5153 119.286 52.3622 123.092 52.6499 127.011C52.9372 130.925 54.6678 135.052 59.0754 137.464C59.0766 137.465 59.0779 137.465 59.0791 137.466L100.21 160.91C100.21 160.91 100.21 160.91 100.211 160.91C112.79 168.086 129.561 172.321 147.426 172.847C155.608 173.09 164.255 172.351 173.858 170.59L173.859 170.59L207.541 164.404C208.664 164.198 209.668 163.834 210.483 163.364ZM144.956 74.721L90.3222 90.4219L144.956 74.721Z" fill="white" fill-opacity="0.5" stroke="url(#paint3_linear_147_59)" stroke-width="0.786962" stroke-linecap="round" stroke-linejoin="round"/>
</g>
<g filter="url(#filter4_b_147_59)">
<mask id="path-8-outside-2_147_59" maskUnits="userSpaceOnUse" x="28.8069" y="49.0035" width="238.162" height="137.491" fill="black">
<rect fill="white" x="28.8069" y="49.0035" width="238.162" height="137.491"/>
<path d="M210.142 153.069C209.379 153.51 208.44 153.85 207.395 154.042L173.712 160.228C164.151 161.981 155.563 162.712 147.45 162.472C129.702 161.949 113.043 157.742 100.549 150.615L59.4104 127.167C54.6615 124.461 53.4741 120.257 56.4346 116.707L82.9942 84.9764C84.5507 83.0804 87.2382 81.5149 90.5357 80.5738L145.171 64.8724C151.279 63.1107 158.581 63.75 163.317 66.4558L204.486 89.9217C216.968 97.0346 224.465 106.586 225.604 116.817C226.125 121.51 224.956 126.474 222.041 131.993L211.784 151.473C211.469 152.08 210.9 152.625 210.142 153.069"/>
</mask>
<path d="M210.142 153.069C209.379 153.51 208.44 153.85 207.395 154.042L173.712 160.228C164.151 161.981 155.563 162.712 147.45 162.472C129.702 161.949 113.043 157.742 100.549 150.615L59.4104 127.167C54.6615 124.461 53.4741 120.257 56.4346 116.707L82.9942 84.9764C84.5507 83.0804 87.2382 81.5149 90.5357 80.5738L145.171 64.8724C151.279 63.1107 158.581 63.75 163.317 66.4558L204.486 89.9217C216.968 97.0346 224.465 106.586 225.604 116.817C226.125 121.51 224.956 126.474 222.041 131.993L211.784 151.473C211.469 152.08 210.9 152.625 210.142 153.069" fill="white" fill-opacity="0.5"/>
<path d="M211.963 154.12C212.968 153.54 212.968 152.599 211.963 152.019C210.957 151.438 209.327 151.438 208.322 152.019L211.963 154.12ZM207.395 154.042L206.615 152.625L206.615 152.625L207.395 154.042ZM173.712 160.228L174.492 161.644L174.493 161.644L173.712 160.228ZM147.45 162.472L147.583 160.987L147.582 160.987L147.45 162.472ZM100.549 150.615L102.358 149.558L102.358 149.557L100.549 150.615ZM59.4104 127.167L61.219 126.109L61.2186 126.109L59.4104 127.167ZM56.4346 116.707L54.1167 116.06L54.115 116.062L56.4346 116.707ZM82.9942 84.9764L85.312 85.623C85.3148 85.6196 85.3176 85.6163 85.3204 85.6129L82.9942 84.9764ZM90.5357 80.5738L91.6766 81.9061L91.6829 81.9042L90.5357 80.5738ZM145.171 64.8724L146.318 66.2028L146.321 66.2019L145.171 64.8724ZM163.317 66.4558L161.507 67.5122L161.509 67.5134L163.317 66.4558ZM204.486 89.9217L202.677 90.9792L202.678 90.9793L204.486 89.9217ZM225.604 116.817L228.173 116.722L228.173 116.721L225.604 116.817ZM222.041 131.993L219.579 131.559L219.578 131.561L222.041 131.993ZM211.784 151.473L209.321 151.041L209.317 151.048L211.784 151.473ZM208.308 152.027C207.31 152.612 207.323 153.553 208.336 154.128C209.35 154.704 210.98 154.697 211.977 154.112L208.308 152.027ZM208.322 152.019C207.835 152.3 207.249 152.509 206.615 152.625L208.175 155.458C209.632 155.19 210.923 154.721 211.963 154.12L208.322 152.019ZM206.615 152.625L172.932 158.811L174.493 161.644L208.176 155.458L206.615 152.625ZM172.933 158.811C163.601 160.523 155.325 161.217 147.583 160.987L147.318 163.956C155.801 164.208 164.702 163.439 174.492 161.644L172.933 158.811ZM147.582 160.987C130.455 160.483 114.396 156.425 102.358 149.558L98.7397 151.672C111.69 159.059 128.949 163.415 147.319 163.956L147.582 160.987ZM102.358 149.557L61.219 126.109L57.6017 128.224L98.7404 151.673L102.358 149.557ZM61.2186 126.109C57.2802 123.865 56.2538 120.35 58.7541 117.351L54.115 116.062C50.6944 120.164 52.0428 125.057 57.6021 128.224L61.2186 126.109ZM58.7524 117.353L85.312 85.623L80.6763 84.3298L54.1167 116.06L58.7524 117.353ZM85.3204 85.6129C86.6241 84.0249 88.8888 82.7017 91.6765 81.9061L89.3948 79.2416C85.5876 80.3282 82.4773 82.136 80.6679 84.3399L85.3204 85.6129ZM91.6829 81.9042L146.318 66.2028L144.024 63.542L89.3885 79.2434L91.6829 81.9042ZM146.321 66.2019C151.475 64.7156 157.578 65.2682 161.507 67.5122L165.128 65.3995C159.583 62.2319 151.084 61.5057 144.02 63.543L146.321 66.2019ZM161.509 67.5134L202.677 90.9792L206.295 88.8642L165.126 65.3983L161.509 67.5134ZM202.678 90.9793C214.704 97.8325 221.936 107.04 223.035 116.912L228.173 116.721C226.995 106.132 219.233 96.2367 206.294 88.864L202.678 90.9793ZM223.035 116.912C223.532 121.39 222.423 126.174 219.579 131.559L224.503 132.426C227.488 126.775 228.717 121.629 228.173 116.722L223.035 116.912ZM219.578 131.561L209.321 151.041L214.247 151.905L224.504 132.425L219.578 131.561ZM209.317 151.048C209.127 151.415 208.779 151.75 208.308 152.027L211.977 154.112C213.02 153.5 213.812 152.745 214.25 151.899L209.317 151.048Z" fill="url(#paint4_linear_147_59)" mask="url(#path-8-outside-2_147_59)"/>
</g>
<g filter="url(#filter5_i_147_59)">
<path d="M131.342 126.448L131.342 126.449C131.316 128.323 133.924 129.81 137.179 129.779C137.18 129.779 137.18 129.779 137.18 129.779L160.028 129.522C161.664 129.503 163.138 129.104 164.22 128.473C165.301 127.843 165.971 126.986 165.981 126.041L165.981 126.041L166.311 98.8748L166.311 98.874C166.342 97.0044 163.729 95.5131 160.467 95.5475C157.21 95.5819 154.542 97.1403 154.515 99.0285L131.342 126.448ZM131.342 126.448C131.362 124.565 134.03 123.005 137.294 122.968L153.732 122.78L154.225 122.774L154.228 122.49L154.515 99.0288L131.342 126.448Z" fill="#26F172" stroke="url(#paint5_linear_147_59)" stroke-width="0.826969"/>
</g>
<defs>
<filter id="filter0_bd_147_59" x="0.382477" y="107.814" width="301.7" height="260.284" filterUnits="userSpaceOnUse" color-interpolation-filters="sRGB">
<feFlood flood-opacity="0" result="BackgroundImageFix"/>
<feGaussianBlur in="BackgroundImage" stdDeviation="9.44355"/>
<feComposite in2="SourceAlpha" operator="in" result="effect1_backgroundBlur_147_59"/>
<feColorMatrix in="SourceAlpha" type="matrix" values="0 0 0 0 0 0 0 0 0 0 0 0 0 0 0 0 0 0 127 0" result="hardAlpha"/>
<feOffset dy="78.6962"/>
<feGaussianBlur stdDeviation="31.4785"/>
<feComposite in2="hardAlpha" operator="out"/>
<feColorMatrix type="matrix" values="0 0 0 0 0.343982 0 0 0 0 1 0 0 0 0 0.448945 0 0 0 0.5 0"/>
<feBlend mode="normal" in2="effect1_backgroundBlur_147_59" result="effect2_dropShadow_147_59"/>
<feBlend mode="normal" in="SourceGraphic" in2="effect2_dropShadow_147_59" result="shape"/>
</filter>
<filter id="filter1_b_147_59" x="44.5767" y="96.7866" width="213.824" height="139.377" filterUnits="userSpaceOnUse" color-interpolation-filters="sRGB">
<feFlood flood-opacity="0" result="BackgroundImageFix"/>
<feGaussianBlur in="BackgroundImage" stdDeviation="9.44355"/>
<feComposite in2="SourceAlpha" operator="in" result="effect1_backgroundBlur_147_59"/>
<feBlend mode="normal" in="SourceGraphic" in2="effect1_backgroundBlur_147_59" result="shape"/>
</filter>
<filter id="filter2_d_147_59" x="41.6856" y="110.608" width="209.466" height="112.905" filterUnits="userSpaceOnUse" color-interpolation-filters="sRGB">
<feFlood flood-opacity="0" result="BackgroundImageFix"/>
<feColorMatrix in="SourceAlpha" type="matrix" values="0 0 0 0 0 0 0 0 0 0 0 0 0 0 0 0 0 0 127 0" result="hardAlpha"/>
<feOffset dy="23.8208"/>
<feGaussianBlur stdDeviation="15.4135"/>
<feComposite in2="hardAlpha" operator="out"/>
<feColorMatrix type="matrix" values="0 0 0 0 0 0 0 0 0 0.824769 0 0 0 0 0.300654 0 0 0 1 0"/>
<feBlend mode="normal" in2="BackgroundImageFix" result="effect1_dropShadow_147_59"/>
<feBlend mode="normal" in="SourceGraphic" in2="effect1_dropShadow_147_59" result="shape"/>
</filter>
<filter id="filter3_b_147_59" x="38.1115" y="59.4146" width="203.811" height="127.768" filterUnits="userSpaceOnUse" color-interpolation-filters="sRGB">
<feFlood flood-opacity="0" result="BackgroundImageFix"/>
<feGaussianBlur in="BackgroundImage" stdDeviation="7.00613"/>
<feComposite in2="SourceAlpha" operator="in" result="effect1_backgroundBlur_147_59"/>
<feBlend mode="normal" in="SourceGraphic" in2="effect1_backgroundBlur_147_59" result="shape"/>
</filter>
<filter id="filter4_b_147_59" x="24.2238" y="34.3753" width="232.099" height="157.652" filterUnits="userSpaceOnUse" color-interpolation-filters="sRGB">
<feFlood flood-opacity="0" result="BackgroundImageFix"/>
<feGaussianBlur in="BackgroundImage" stdDeviation="14.0123"/>
<feComposite in2="SourceAlpha" operator="in" result="effect1_backgroundBlur_147_59"/>
<feBlend mode="normal" in="SourceGraphic" in2="effect1_backgroundBlur_147_59" result="shape"/>
</filter>
<filter id="filter5_i_147_59" x="130.835" y="95.2545" width="35.9824" height="36.403" filterUnits="userSpaceOnUse" color-interpolation-filters="sRGB">
<feFlood flood-opacity="0" result="BackgroundImageFix"/>
<feBlend mode="normal" in="SourceGraphic" in2="BackgroundImageFix" result="shape"/>
<feColorMatrix in="SourceAlpha" type="matrix" values="0 0 0 0 0 0 0 0 0 0 0 0 0 0 0 0 0 0 127 0" result="hardAlpha"/>
<feOffset dy="3.68523"/>
<feGaussianBlur stdDeviation="0.792618"/>
<feComposite in2="hardAlpha" operator="arithmetic" k2="-1" k3="1"/>
<feColorMatrix type="matrix" values="0 0 0 0 1 0 0 0 0 1 0 0 0 0 1 0 0 0 1 0"/>
<feBlend mode="normal" in2="shape" result="effect1_innerShadow_147_59"/>
</filter>
<linearGradient id="paint0_linear_147_59" x1="76.3794" y1="174.455" x2="241.534" y2="182.994" gradientUnits="userSpaceOnUse">
<stop stop-color="white" stop-opacity="0.25"/>
<stop offset="1" stop-color="white" stop-opacity="0"/>
</linearGradient>
<linearGradient id="paint1_linear_147_59" x1="97.6172" y1="135.523" x2="159.213" y2="242.219" gradientUnits="userSpaceOnUse">
<stop stop-color="#24EF7F"/>
<stop offset="1" stop-color="#26F16D"/>
</linearGradient>
<linearGradient id="paint2_linear_147_59" x1="151.323" y1="158.625" x2="156.538" y2="221.076" gradientUnits="userSpaceOnUse">
<stop stop-color="white" stop-opacity="0.43"/>
<stop offset="0.846595" stop-color="white"/>
<stop offset="1" stop-color="white" stop-opacity="0"/>
</linearGradient>
<linearGradient id="paint3_linear_147_59" x1="65.1637" y1="121.181" x2="230.319" y2="129.72" gradientUnits="userSpaceOnUse">
<stop stop-color="white" stop-opacity="0.25"/>
<stop offset="1" stop-color="white" stop-opacity="0"/>
</linearGradient>
<linearGradient id="paint4_linear_147_59" x1="169.866" y1="166.113" x2="180.156" y2="79.8473" gradientUnits="userSpaceOnUse">
<stop stop-color="white" stop-opacity="0.79"/>
<stop offset="1" stop-color="white" stop-opacity="0"/>
</linearGradient>
<linearGradient id="paint5_linear_147_59" x1="126.868" y1="117.503" x2="170.997" y2="137.468" gradientUnits="userSpaceOnUse">
<stop stop-color="white" stop-opacity="0.25"/>
<stop offset="1" stop-color="white" stop-opacity="0"/>
</linearGradient>
</defs>
</svg>
